<svg width="240" height="240" viewBox="0 0 240 240" fill="none" xmlns="http://www.w3.org/2000/svg">
  <!-- Heart shape -->
  <g transform="translate(120, 120)">
    <path d="M 0 -40 C -20 -60 -50 -50 -50 -20 C -50 0 -30 20 0 50 C 30 20 50 0 50 -20 C 50 -50 20 -60 0 -40 Z" 
          fill="#7E57C2" 
          fill-opacity="0.25"/>
    <path d="M 0 -35 C -18 -53 -45 -44 -45 -18 C -45 0 -28 18 0 45 C 28 18 45 0 45 -18 C 45 -44 18 -53 0 -35 Z" 
          fill="#7E57C2"/>
    
    <!-- Decorative sparkles -->
    <circle cx="-35" cy="-50" r="3" fill="#7E57C2" fill-opacity="0.4"/>
    <circle cx="35" cy="-50" r="3" fill="#7E57C2" fill-opacity="0.4"/>
    <circle cx="-45" cy="-10" r="2.5" fill="#7E57C2" fill-opacity="0.3"/>
    <circle cx="45" cy="-10" r="2.5" fill="#7E57C2" fill-opacity="0.3"/>
    <circle cx="0" cy="-60" r="2" fill="#7E57C2" fill-opacity="0.35"/>
  </g>
  
  <!-- Subtle background glow -->
  <circle cx="120" cy="120" r="80" fill="#7E57C2" fill-opacity="0.05"/>
</svg>

